# xmcd
#
# Track frame offsets:
#	150
#	14408
#	27019
#	40869
#	54506
#	64832
#	76995
#	88962
#	103071
#	116464
#	128747
#	142158
#	153498
#	168177
#	178806
#	190139
#	202425
#	215146
#	225784
#	239399
#	251921
#	265945
#	278037
#	290996
#
# Disc length: 4050
#
# Revision: 2
# Processed by: cddbd v1.5.1PL0 Copyright (c) Steve Scherf et al.
# Submitted via: OrangeCD 4.1
# Normalized: r0:DSETVAR1,TDELIM( - ),TSWAP
#
DISCID=6b0fd018
DTITLE=Various Artist - 1949: The R&B Hits
DYEAR=1900
DGENRE=
TTITLE0=John Lee Hooker - Boogie Chillen
TTITLE1=Big jay McNeely - The Deacon's Hop
TTITLE2=Paul Williams - The Hucklebuck
TTITLE3=Charles Brown - Get Yourself Another Fool
TTITLE4=Buddy Johnson Orchestra - Did You See Jackie Robinson Hit the Ball
TTITLE5=Chubby Newsome - Hip Shakin' Mama
TTITLE6=Wynonie Harris - Grandma Plays the Numbers
TTITLE7=Jimmy Witherspoon - Ain't Nobody's Business, Pt. 2
TTITLE8=Julia Lee - I Didn't Like it the First Time
TTITLE9=Roy Brown - Rockin' at Midnight
TTITLE10=T-Bone Walker - T-Bone Shuffle
TTITLE11=Hal Singer - Beef Stew
TTITLE12=Stick McGhee - Drinkin' Wine, Spo-Dee-O-Dee
TTITLE13=Roy Milton - Hucklebuck
TTITLE14=Ray Charles and The Maxin Trio - Confession Blues
TTITLE15=Jimmy Preston - Hucklebuck Daddy
TTITLE16=Amos Milburn - Hold me Baby
TTITLE17=Charles Brown - Trouble Blues
TTITLE18=John Lee Hooker - Hobo Blues
TTITLE19=Eddie Chamblee - Back Street
TTITLE20=Frank Culley - Cole Slaw
TTITLE21=Amos Milburn - In the Middle of the Night
TTITLE22=Dinah Washington - Baby Get Lost
TTITLE23=Louis Jordan - Beans and Corn Bread
EXTD=
EXTT0=
EXTT1=
EXTT2=
EXTT3=
EXTT4=
EXTT5=
EXTT6=
EXTT7=
EXTT8=
EXTT9=
EXTT10=
EXTT11=
EXTT12=
EXTT13=
EXTT14=
EXTT15=
EXTT16=
EXTT17=
EXTT18=
EXTT19=
EXTT20=
EXTT21=
EXTT22=
EXTT23=
PLAYORDER=
